<svg width="111" height="138" viewBox="0 0 111 138" fill="none" xmlns="http://www.w3.org/2000/svg">
<path d="M96.5863 22.7268C84.4863 8.31683 63.0363 6.44683 48.6263 18.5468C35.5363 29.5468 32.7863 48.2468 41.4763 62.3268L5.50635 92.2468C7.37635 94.9968 9.57635 97.6368 11.9963 99.9468L47.9663 70.0268C60.2863 81.0268 79.2063 81.6868 92.2963 70.6868C106.706 58.5868 108.576 37.1368 96.5863 22.7268ZM86.3563 63.4268C75.9063 72.1168 60.3963 70.7968 51.7063 60.3468C43.0163 49.8968 44.3363 34.3868 54.7863 25.6968C65.2363 17.0068 80.7463 18.3268 89.4363 28.7768C98.1263 39.2268 96.6963 54.7368 86.3563 63.4268Z" fill="currentColor"/>
<path d="M72.4975 23.8281C71.3975 23.8281 70.6275 23.9381 70.6275 23.9381L67.1075 24.3781L70.4075 25.8081C73.8175 27.2381 76.3475 28.7781 78.3275 30.2081C74.0375 31.1981 70.9575 34.8281 70.9575 34.8281C70.9575 34.8281 67.5475 30.7581 62.9275 29.9881C56.8775 29.2181 51.7075 32.1881 52.3675 41.6481C53.1375 53.5281 70.8475 63.7581 70.8475 63.7581C70.8475 63.7581 81.7375 57.4881 86.7975 49.1281C87.5675 49.7881 88.2275 49.8981 88.6675 49.8981C89.3275 49.8981 89.9875 49.5681 90.5375 49.0181C91.5275 48.0281 91.9675 46.1581 91.7475 44.0681C90.4275 25.2581 76.6775 23.8281 72.4975 23.8281ZM89.1075 47.5881C88.9975 47.6981 88.8875 47.8081 88.6675 47.8081C88.3375 47.8081 87.5675 47.1481 87.0175 45.1681C86.7975 44.1781 86.6875 43.1881 86.5775 42.0881C86.0275 37.5781 85.3675 31.5281 75.3575 26.1381C80.7475 26.9081 88.7775 30.4281 89.8775 44.1781C89.9875 45.9381 89.5475 47.0381 89.1075 47.5881Z" fill="currentColor"/>
<path d="M88.0059 50.3398C86.6859 50.3398 85.5859 51.4398 85.5859 52.7598C85.5859 54.0799 86.6859 55.1799 88.0059 55.1799C89.3259 55.1799 90.4259 54.0799 90.4259 52.7598C90.4259 51.4398 89.3259 50.3398 88.0059 50.3398ZM88.0059 53.0898C87.7859 53.0898 87.5659 52.8698 87.5659 52.6498C87.5659 52.4298 87.7859 52.2098 88.0059 52.2098C88.2259 52.2098 88.4459 52.4298 88.4459 52.6498C88.4459 52.8698 88.2259 53.0898 88.0059 53.0898Z" fill="currentColor"/>
</svg>
