<svg width="15" height="16" viewBox="0 0 15 16" fill="none" xmlns="http://www.w3.org/2000/svg">
<path d="M9.86274 12.9562C9.69699 14.1128 8.70221 15.0017 7.49983 15.0017C6.29741 15.0017 5.30263 14.1128 5.13688 12.9562H9.86274ZM7.49983 0C10.6428 0 13.2015 2.50158 13.2936 5.62231V5.7963H13.2961L13.296 8.59977L14.2601 11.0845C14.2861 11.1516 14.3037 11.2216 14.3125 11.2928L14.3192 11.4002C14.3192 11.852 13.9757 12.2237 13.5356 12.2684L13.4464 12.2729H1.55081C1.44261 12.2729 1.33534 12.2528 1.23449 12.2136C0.813346 12.0498 0.591436 11.595 0.709294 11.1687L0.737433 11.0838L1.70301 8.59909L1.70352 5.7963C1.70352 2.5951 4.29862 0 7.49983 0Z" fill="currentColor"/>
</svg>
