<svg width="78" height="88" viewBox="0 0 78 88" fill="none" xmlns="http://www.w3.org/2000/svg">
<path d="M44.2228 34.9755C44.2228 32.0127 41.8175 29.6074 38.8547 29.6074C35.8897 29.6074 33.4888 32.0127 33.4888 34.9755C33.4888 37.9363 35.8898 40.3437 38.8547 40.3437C41.8175 40.3437 44.2228 37.9362 44.2228 34.9755Z" fill="#53616C"/>
<path d="M49.185 37.8895C49.0614 38.3192 48.914 38.7418 48.7431 39.1541C48.2028 40.4336 47.4274 41.5809 46.4445 42.5636C45.46 43.5484 44.3126 44.3214 43.0353 44.8643C42.6209 45.0374 42.1979 45.1866 41.7706 45.3062L41.6809 45.3981L48.3415 52.0607L48.7835 44.9067L55.9414 44.4624L49.2766 37.7998L49.185 37.8895Z" fill="#53616C"/>
<path d="M31.263 42.5638C30.2802 41.5811 29.5071 40.4342 28.9644 39.1544C28.5501 38.1674 28.2852 37.1356 28.1783 36.0742C19.1811 42.4036 5.14668 52.2899 4.98002 52.4565C2.69435 54.7443 4.54853 60.3047 9.1241 64.8781C13.6954 69.4538 19.2578 71.3059 21.5435 69.0203C21.71 68.8536 31.8097 54.5522 38.0686 45.6828C36.898 45.5974 35.7616 45.3217 34.6722 44.865C33.3948 44.322 32.2456 43.5486 31.263 42.5638Z" fill="#FE6E25"/>
<path d="M68.8802 5.11869C64.3068 0.547227 58.744 -1.30477 56.4566 0.978848C56.2832 1.15399 46.2266 15.5688 40.1278 24.3163C41.1276 24.4338 42.0996 24.6945 43.0353 25.0854C44.3126 25.6301 45.4594 26.4013 46.4445 27.3861C47.4272 28.3709 48.2005 29.5157 48.7431 30.7954C49.1897 31.8613 49.4631 32.9764 49.5528 34.1236C58.3599 27.9223 72.8516 17.7136 73.0225 17.5451C75.3035 15.2549 73.4514 9.69234 68.8802 5.11869Z" fill="#FE6E25"/>
</svg>
