<svg width="66" height="48" viewBox="0 0 66 48" fill="none" xmlns="http://www.w3.org/2000/svg">
<path d="M50.309 17.7499H46.582C45.475 13.4633 43.188 9.57313 39.98 6.52133C36.773 3.46953 32.774 1.37854 28.438 0.485937C24.102 -0.406563 19.602 -0.0649636 15.45 1.47204C11.298 3.00904 7.66098 5.67983 4.95098 9.18083C2.24098 12.6818 0.567991 16.8727 0.120991 21.2773C-0.326009 25.6819 0.470986 30.1236 2.42199 34.0976C4.37399 38.0716 7.39999 41.4186 11.159 43.7583C14.917 46.098 19.257 47.3366 23.684 47.3333H50.309C54.232 47.3333 57.994 45.7749 60.768 43.0009C63.542 40.2269 65.101 36.4646 65.101 32.5416C65.101 28.6186 63.542 24.8563 60.768 22.0823C57.994 19.3083 54.232 17.7499 50.309 17.7499Z" fill="currentColor"/>
</svg>
