<svg width="130" height="141" viewBox="0 0 130 141" fill="none" xmlns="http://www.w3.org/2000/svg">
<path d="M40.8203 83.9784C33.0203 83.9784 26.6503 77.6084 26.6503 69.8084V33.1484H17.1603C15.3403 33.1484 13.6503 33.5384 12.2203 34.4484C8.97025 36.1384 6.76025 39.6484 6.76025 43.5484V85.4084C6.76025 89.3084 8.97025 92.6884 12.2203 94.5084C13.6503 95.2884 15.3403 95.8084 17.1603 95.8084H28.4703V115.828L49.0103 95.8084H89.3102C89.9602 95.8084 90.6102 95.6784 91.2602 95.5484L79.5602 84.1084H40.8203V83.9784Z" fill="currentColor"/>
<path d="M122.98 25.7398C122.85 25.0898 122.59 24.4398 122.33 23.7898C122.2 23.5298 122.07 23.1398 121.94 22.8798C121.42 21.9698 120.9 21.1898 120.12 20.5398C119.6 20.0198 119.08 19.6298 118.56 19.2398C118.04 18.8498 117.39 18.5898 116.87 18.3298C115.7 17.8098 114.27 17.5498 112.84 17.5498H40.8204C39.3904 17.5498 38.0904 17.8098 36.7904 18.3298C36.1404 18.5898 35.6204 18.8498 35.1004 19.2398C34.5804 19.6298 34.0604 20.0198 33.5404 20.5398C32.8904 21.1898 32.2404 22.0998 31.7204 22.8798C31.5904 23.1398 31.4604 23.5298 31.3304 23.7898C31.0704 24.4398 30.8104 25.0898 30.6804 25.7398C30.5504 26.3898 30.4204 27.0398 30.4204 27.8198V33.0198V69.6798C30.4204 75.3998 35.1004 79.9498 40.6904 79.9498H80.9904L95.0304 93.5998L101.53 99.8398V79.8198H112.84C114.27 79.8198 115.57 79.5598 116.87 79.0398C117.52 78.7798 118.04 78.5198 118.56 78.1298C119.08 77.7398 119.6 77.3498 120.12 76.8298C120.77 76.1798 121.42 75.2698 121.94 74.4898C122.07 74.2298 122.2 73.8398 122.33 73.5798C122.59 72.9298 122.85 72.2798 122.98 71.6298C123.11 70.9798 123.24 70.3298 123.24 69.5498V27.8198C123.24 27.1698 123.11 26.3898 122.98 25.7398ZM69.2904 59.4098C67.3404 59.4098 65.7804 57.8498 65.7804 55.8998C65.7804 53.9498 67.3404 52.2598 69.2904 52.2598C71.2404 52.2598 72.8004 53.9498 72.8004 55.8998C72.8004 57.8498 71.2404 59.4098 69.2904 59.4098ZM69.2904 41.9898C67.3404 41.9898 65.7804 40.4298 65.7804 38.4798C65.7804 36.5298 67.3404 34.8398 69.2904 34.8398C71.2404 34.8398 72.8004 36.5298 72.8004 38.4798C72.8004 40.2998 71.2404 41.9898 69.2904 41.9898ZM81.6404 64.8698L79.3004 62.7898C83.3304 58.3698 85.5404 53.1698 85.5404 46.2798C85.5404 38.8698 83.2004 33.9298 79.3004 29.6398L81.6404 27.5598C86.1904 31.8498 90.4804 37.8298 90.4804 46.0198C90.3504 54.5998 86.1904 60.4498 81.6404 64.8698Z" fill="currentColor"/>
</svg>
