<svg width="13" height="13" viewBox="0 0 13 13" fill="none" xmlns="http://www.w3.org/2000/svg">
<path d="M8.21925 9.31269C9.03712 9.31269 9.35563 9.67675 9.59756 10.4841L9.64 10.6324C9.75406 11.0432 9.82225 11.1663 9.96037 11.2232C10.1223 11.2899 10.2303 11.2804 10.4 11.1932L10.4919 11.1418C10.5249 11.1219 10.5609 11.099 10.6016 11.0721L11.0161 10.79C11.4011 10.5368 11.7469 10.3694 12.1681 10.2642C12.4192 10.2014 12.6737 10.3541 12.7365 10.6053C12.7993 10.8564 12.6466 11.1109 12.3954 11.1737C12.1411 11.2373 11.9216 11.3336 11.6796 11.4796L11.493 11.5988L11.1936 11.8038C11.05 11.9015 10.9416 11.9689 10.8287 12.0269C10.4269 12.2335 10.035 12.2679 9.60312 12.0899C9.13762 11.8981 8.94994 11.6025 8.77419 11.0139L8.67681 10.6753C8.5635 10.3069 8.48625 10.2502 8.21925 10.2502C8.02594 10.2502 7.82575 10.3469 7.55156 10.5771L7.43606 10.6776L6.8605 11.2247C5.98044 12.0519 5.23014 12.4536 4.15592 12.4536C3.10199 12.4536 2.19049 12.2949 1.42532 11.9731L3.26757 11.4704C3.54711 11.5009 3.84318 11.5161 4.15592 11.5161C4.89514 11.5161 5.42575 11.2568 6.08481 10.6645L6.24619 10.5153L6.57856 10.1959C6.7265 10.0541 6.83731 9.95257 6.94887 9.85888C7.37612 9.50038 7.7645 9.31269 8.21925 9.31269ZM10.8945 0.856236C11.7679 1.72965 11.7679 3.14573 10.8945 4.01915L10.7144 4.19959C11.434 5.07543 11.408 6.00363 10.7387 6.67494L9.48794 7.92569C9.30469 8.10857 9.00794 8.10832 8.825 7.92513C8.64213 7.74188 8.64237 7.44507 8.82562 7.26219L10.0748 6.01294C10.3779 5.70894 10.413 5.3315 10.0499 4.86399L4.66427 10.2494C4.49122 10.4224 4.27601 10.5473 4.03991 10.6117L0.842605 11.4837C0.49268 11.5791 0.171599 11.258 0.267036 10.9081L1.13902 7.71082C1.20342 7.47469 1.32831 7.2595 1.50135 7.08644L7.73156 0.856236C8.605 -0.0171828 10.0211 -0.0171828 10.8945 0.856236Z" fill="currentColor"/>
</svg>
