<svg width="14" height="12" viewBox="0 0 14 12" fill="none" xmlns="http://www.w3.org/2000/svg">
<path d="M1.87466 2.69454C1.31105 3.05553 0.9375 3.68727 0.9375 4.40625V8.15625C0.9375 9.96844 2.40657 11.4375 4.21875 11.4375H9.84375C10.5627 11.4375 11.1945 11.0639 11.5554 10.5003L4.21875 10.5C2.92433 10.5 1.875 9.45069 1.875 8.15625L1.87466 2.69454ZM2.5 3.06875V7.84375C2.5 8.92688 3.34778 9.812 4.41599 9.87181L4.53125 9.875H11.7188C12.8019 9.875 13.687 9.02719 13.7468 7.959L13.75 7.84375V3.06875L8.34331 5.91481C8.20669 5.98675 8.04331 5.98675 7.90669 5.91481L2.5 3.06875ZM11.7188 0.5H4.53125C3.57833 0.5 2.77866 1.15619 2.55947 2.04136L8.125 4.97031L13.6906 2.04136C13.4805 1.19307 12.7373 0.555081 11.8371 0.503388L11.7188 0.5Z" fill="currentColor"/>
</svg>
