<svg width="150" height="151" viewBox="0 0 150 151" fill="none" xmlns="http://www.w3.org/2000/svg">
<path d="M105.223 37.4324C90.8276 35.3013 84.6065 41.4257 77.8762 47.5136C71.1459 41.4257 64.9248 35.3013 50.5291 37.4324C38.6407 39.1927 27.1545 54.9125 32.2342 73.1448C42.3859 109.609 77.8762 118.46 77.8762 118.46C77.8762 118.46 86.9936 116.18 97.3072 109.189C87.3749 104.302 82.1986 104.088 73.2979 104.563C63.8749 105.07 65.0893 101.834 66.565 99.9669C70.6836 94.7409 80.3051 96.3915 80.3051 96.3915L76.1525 92.2363L71.6943 87.7807L59.7171 75.8035C58.4661 74.5525 58.4661 72.5232 59.7171 71.2722C60.9681 70.0212 62.9974 70.0212 64.2484 71.2722L76.2256 83.2468L77.6856 81.7869L63.8253 67.9266C62.4463 66.5502 62.4489 64.3146 63.8253 62.9383C65.2016 61.5593 67.4373 61.5619 68.8136 62.9383L82.6765 76.7985L84.1051 75.3726L70.6235 61.8936C69.2707 60.5407 69.2707 58.3495 70.6235 56.9967C71.9764 55.6438 74.1702 55.6438 75.5205 56.9967L88.9994 70.4782L90.8642 68.6135L80.104 57.8533C78.9339 56.6833 78.9339 54.7846 80.104 53.6145C81.274 52.4445 83.1727 52.4445 84.3428 53.6145L95.103 64.3773C99.9137 69.1881 109.572 79.5617 111.353 85.7593C112.055 88.1986 113.348 90.604 114.471 92.4165C118.211 87.0651 121.413 80.7109 123.516 73.1552C128.595 54.9125 117.112 39.1953 105.223 37.4324Z" fill="currentColor"/>
</svg>
