<svg width="80" height="80" viewBox="0 0 80 80" fill="none" xmlns="http://www.w3.org/2000/svg">
<path d="M65.9805 33.9742L40 40.1362L13.853 33.9742L32.5057 29.4775C32.8388 30.3102 33.3384 31.143 34.1711 31.476V34.6403C34.1711 36.1392 35.5034 37.4715 37.0023 37.4715C37.6685 38.4708 38.8343 39.1369 40 39.1369C41.3324 39.1369 42.3316 38.4708 42.9978 37.4715C44.6632 37.4715 45.829 36.1392 45.829 34.6403V31.476C46.4952 30.9764 47.1613 30.3102 47.4944 29.6441L65.9805 33.9742Z" fill="currentColor"/>
<path d="M69.4778 50.6245V69.4437C69.4778 71.2756 68.1454 72.941 66.3135 73.4407L42.9976 79.1031C41.9984 79.4362 40.8326 79.4362 39.6668 79.4362C38.501 79.4362 37.5018 79.2696 36.336 79.1031L13.0202 73.4407C11.3548 72.941 10.189 71.2756 10.189 69.4437V50.4579L25.5108 55.1211C26.0104 55.2876 26.3435 55.2876 26.8431 55.2876C28.0089 55.2876 29.1747 54.788 30.0074 53.9553L39.9999 44.2959L49.9924 53.9553C50.8251 54.788 51.9909 55.2876 53.1567 55.2876C53.6563 55.2876 54.1559 55.2876 54.489 55.1211L69.4778 50.6245Z" fill="currentColor"/>
<path d="M79.6369 43.7979L69.6444 34.8047L40 41.966L51.3248 52.7912C52.1575 53.6239 53.1568 53.7904 54.3226 53.4573L79.3038 45.963C79.97 45.6299 80.303 44.4641 79.6369 43.7979Z" fill="currentColor"/>
<path d="M0.363117 43.7979L10.3556 34.8047L40 41.966L28.6752 52.7912C27.8425 53.6239 26.8432 53.7904 25.6774 53.4573L0.6962 45.963C0.030034 45.6299 -0.303049 44.4641 0.363117 43.7979Z" fill="currentColor"/>
<path d="M38.168 16.6555V17.6548H36.0029C35.5033 17.6548 35.0037 17.1551 35.0037 16.6555C35.0037 16.1559 35.5033 15.6562 36.0029 15.6562H37.1687C37.6683 15.6562 38.168 16.1559 38.168 16.6555Z" fill="currentColor"/>
<path d="M44.3301 17.6548H42.165V16.6555C42.165 16.1559 42.6647 15.6562 43.1643 15.6562H44.3301C44.8297 15.6562 45.3293 16.1559 45.3293 16.6555C45.3293 17.1551 44.8297 17.6548 44.3301 17.6548Z" fill="currentColor"/>
<path d="M44.4968 31.9775V34.6422C44.4968 35.3084 43.9972 35.808 43.331 35.808H42.1652C41.9987 36.8072 41.166 37.4734 40.1667 37.4734C39.1675 37.4734 38.3348 36.8072 38.1682 35.808H37.0025C36.3363 35.808 35.8367 35.3084 35.8367 34.6422V31.9775H36.0032H44.4968C44.3303 31.9775 44.4968 31.9775 44.4968 31.9775Z" fill="currentColor"/>
<path d="M41.1658 18.4854H39.0007V30.3098H41.1658V18.4854Z" fill="currentColor"/>
<path d="M52.9901 12.6572C52.9901 21.3173 47.4943 21.9835 46.3285 28.6451C46.1619 29.6444 45.3292 30.3106 44.33 30.3106H42.1649V18.4861H44.33C45.3292 18.4861 46.1619 17.6534 46.1619 16.6542C46.1619 15.6549 45.3292 14.8222 44.33 14.8222H43.1642C42.1649 14.8222 41.3322 15.6549 41.3322 16.6542V17.6534H39.1672V16.6542C39.1672 15.6549 38.3345 14.8222 37.3352 14.8222H36.1694C35.1702 14.8222 34.3375 15.6549 34.3375 16.6542C34.3375 17.6534 35.1702 18.4861 36.1694 18.4861H38.3345V30.3106H36.1694C35.1702 30.3106 34.3375 29.6444 34.1709 28.6451C33.0051 21.9835 27.5093 21.1508 27.5093 12.6572C27.5093 5.66241 33.1717 0 40.1664 0C47.1612 0 52.9901 5.66241 52.9901 12.6572Z" fill="currentColor"/>
</svg>
