<svg width="140" height="141" viewBox="0 0 140 141" fill="none" xmlns="http://www.w3.org/2000/svg">
<path d="M106.68 117.603L111.58 115.083C112.56 114.523 112.98 113.403 112.42 112.423C111.86 111.443 110.74 111.023 109.76 111.583L104.86 114.103L103.88 112.003L112.84 107.383C113.82 106.823 114.24 105.703 113.68 104.723C113.12 103.743 112 103.323 111.02 103.883L102.06 108.503L92.8204 90.4429L94.2204 89.7429C95.2004 89.3229 95.4804 88.0629 95.0604 87.0829L94.2204 85.4029C93.8004 84.4229 94.0804 83.3029 95.0604 82.7429C96.0404 82.3229 96.4604 81.0629 95.9004 80.0829L94.9204 78.4029C94.3604 77.4229 93.2404 77.0029 92.2604 77.5629C91.2804 78.1229 90.1604 77.7029 89.7404 76.7229L88.9004 75.0429C88.4804 74.0629 87.2204 73.7829 86.2404 74.2029L84.8404 74.9029L82.3204 70.0029C83.0204 68.6029 83.1604 66.7829 82.3204 65.2429C82.1804 64.9629 81.9004 64.6829 81.7604 64.4029C83.1604 65.1029 84.9804 65.1029 86.3804 64.4029C88.9004 63.1429 90.0204 59.9229 88.6204 57.4029C88.0604 56.2829 87.2204 55.5829 86.1004 55.0229V54.8829C87.5004 55.4429 89.0404 55.4429 90.4404 54.7429C92.9604 53.4829 94.0804 50.2629 92.6804 47.7429C92.1204 46.6229 91.2804 45.7829 90.1604 45.3629C91.0004 45.3629 91.9804 45.2229 92.8204 44.8029C95.3404 43.5429 96.4604 40.3229 95.0604 37.8029C94.2204 36.1229 92.5404 35.1429 90.7204 35.0029C91.4204 35.0029 92.1204 34.7229 92.8204 34.4429C95.3404 33.1829 96.4604 29.9629 95.0604 27.4429C94.0804 25.3429 91.8404 24.3629 89.7404 24.6429C91.9804 23.2429 92.8204 20.3029 91.5604 17.7829C90.3004 15.2629 87.0804 14.1429 84.5604 15.5429C84.2804 15.6829 84.1404 15.8229 84.0004 15.9629C85.1204 14.4229 85.4004 12.3229 84.4204 10.5029C83.1604 7.98293 79.9404 6.86293 77.4204 8.26293C76.0204 8.96293 75.1804 10.2229 74.7604 11.6229C74.6204 11.2029 74.4804 10.6429 74.3404 10.2229C73.0804 7.70293 69.8604 6.58293 67.3404 7.98293C64.8204 9.24293 63.8404 12.3229 64.9604 14.8429C63.4204 13.4429 61.0404 13.0229 59.0804 14.0029C58.2404 14.4229 57.5404 15.1229 56.9804 15.9629C56.9804 14.9829 56.8404 13.8629 56.2804 12.8829C54.7404 9.80293 50.9604 8.54293 47.7404 10.2229C44.6604 11.7629 43.4004 15.5429 45.0804 18.7629C45.6404 19.7429 46.3404 20.5829 47.1804 21.1429C46.2004 21.0029 45.2204 21.2829 44.3804 21.7029C42.4204 22.6829 41.3004 24.9229 41.5804 27.0229C40.1804 24.6429 37.1004 23.6629 34.7204 24.9229C32.2004 26.1829 31.0804 29.4029 32.4804 31.9229C32.7604 32.3429 33.0404 32.7629 33.3204 33.0429C31.9204 32.4829 30.3804 32.6229 29.1204 33.3229C26.6004 34.5829 25.4804 37.8029 26.8804 40.3229C27.8604 42.1429 29.6804 43.1229 31.6404 43.1229C31.3604 43.2629 31.2204 43.2629 30.9404 43.4029C28.4204 44.6629 27.3004 47.8829 28.7004 50.4029C29.9604 52.7829 32.7604 53.9029 35.2804 52.9229C33.7404 54.4629 33.3204 56.8429 34.4404 58.9429C35.7004 61.4629 38.9204 62.5829 41.4404 61.1829C42.1404 60.7629 42.7004 60.3429 43.1204 59.7829C42.1404 61.3229 42.0004 63.2829 42.9804 64.9629C44.2404 67.4829 47.4604 68.6029 49.9804 67.2029C50.8204 66.7829 51.5204 66.0829 52.0804 65.3829C51.8004 66.5029 51.9404 67.7629 52.5004 68.7429C53.7604 71.2629 56.9804 72.3829 59.5004 70.9829C60.9004 70.2829 61.8804 69.0229 62.1604 67.6229H62.3004C62.0204 68.7429 62.1604 69.8629 62.7204 70.9829C63.9804 73.5029 67.2004 74.6229 69.7204 73.2229C71.2604 72.3829 72.2404 70.9829 72.5204 69.4429C72.6604 69.7229 72.8004 70.1429 72.9404 70.4229C73.7804 71.9629 75.1804 72.9429 76.8604 73.2229L79.3804 78.2629L77.9804 78.9629C77.0004 79.3829 76.7204 80.6429 77.1404 81.6229L77.9804 83.3029C78.4004 84.2829 78.1204 85.4029 77.1404 85.9629C76.1604 86.3829 75.8804 87.6429 76.3004 88.6229L77.1404 90.3029C77.5604 91.2829 78.8204 91.5629 79.8004 91.1429C80.7804 90.7229 81.9004 91.0029 82.4604 91.9829L83.3004 93.6629C83.7204 94.6429 84.9804 94.9229 85.9604 94.5029L87.3604 93.8029L107.8 133.003C109.76 132.303 111.58 131.463 113.4 130.483L106.68 117.603ZM75.6004 63.5629C75.6004 63.5629 50.4004 62.4429 42.8404 49.8429C36.8204 39.9029 40.8804 33.6029 47.8804 31.3629C53.3404 29.5429 59.3604 32.0629 59.3604 32.0629C59.3604 32.0629 60.9004 25.6229 65.3804 22.2629C71.4004 17.7829 78.8204 18.2029 83.4404 28.8429C89.3204 42.5629 75.6004 63.5629 75.6004 63.5629Z" fill="currentColor"/>
</svg>
