<svg width="38" height="84" viewBox="0 0 38 84" fill="none" xmlns="http://www.w3.org/2000/svg">
<path d="M1.00401 44.1525C0.97922 43.1551 0.983476 42.1528 1.00258 41.1553C1.07957 37.1359 2.97329 26.1056 20.7727 21.3274C38.133 16.6671 39.6756 6.05943 39.5579 1.80964C39.5414 1.21532 40.322 0.791786 40.7774 1.174C40.9185 1.29243 41 1.46719 41 1.6514V42.6553L41 82.7766C41 83.174 40.6779 83.4961 40.2805 83.4961C39.8184 83.4961 39.4615 83.0697 39.5058 82.6097C39.8207 79.3433 39.5053 67.9177 20.7727 63.0757C3.07073 58.5002 1.10078 48.0454 1.00401 44.1525Z" fill="currentColor"/>
</svg>
