<svg width="128" height="156" viewBox="0 0 128 156" fill="none" xmlns="http://www.w3.org/2000/svg">
<path d="M61.3597 24.2199C61.3597 24.2199 63.5997 20.9999 62.7597 18.7599C62.0597 17.0799 60.9397 16.9399 59.9597 17.6399C59.2597 18.1999 58.9797 19.1799 58.9797 19.1799C58.9797 19.1799 57.9997 18.7599 57.1597 19.0399C56.0397 19.3199 55.3397 20.2999 56.1797 21.9799C57.4397 23.9399 61.3597 24.2199 61.3597 24.2199Z" fill="currentColor"/>
<path d="M73.6801 17.22C73.6801 17.22 79.0001 14 79.2801 10.5C79.4201 7.70003 77.8801 6.72003 76.0601 7.00003C74.6601 7.28003 73.6801 8.54003 73.6801 8.54003C73.6801 8.54003 72.5601 7.28003 71.3001 7.14003C69.4801 6.86003 67.9401 7.84003 68.0801 10.64C68.3601 14.28 73.6801 17.22 73.6801 17.22Z" fill="currentColor"/>
<path d="M82.9202 53.3377V50.8177C84.0402 50.6777 85.0202 49.5577 85.0202 48.2977V44.6577C85.0202 43.2577 83.9002 42.1377 82.5002 42.1377H33.5002C32.1002 42.1377 30.9802 43.2577 30.9802 44.6577V48.2977C30.9802 49.5577 31.8202 50.5377 33.0802 50.8177V53.3377C30.2802 53.8977 28.1802 56.4177 28.1802 59.3577V127.118C28.1802 130.478 30.8402 133.138 34.2002 133.138H81.9402C85.3002 133.138 87.9602 130.478 87.9602 127.118V59.3577C87.8202 56.2777 85.7202 53.8977 82.9202 53.3377ZM33.5002 44.5177H82.3602C82.3602 44.5177 82.5002 44.5177 82.5002 44.6577V47.5977H33.5002V44.5177C33.5002 44.6577 33.5002 44.5177 33.5002 44.5177ZM85.4402 126.978C85.4402 128.938 83.9002 130.618 81.8002 130.618H34.0602C32.1002 130.618 30.4202 129.078 30.4202 126.978V59.3577C30.4202 57.2577 32.1002 55.5777 34.2002 55.5777H35.4602V50.8177H80.4002V55.5777H81.6602C83.7602 55.5777 85.4402 57.2577 85.4402 59.3577V126.978Z" fill="currentColor"/>
<path d="M73.8196 92.9562C68.6396 92.1162 63.3196 95.4762 63.3196 95.4762C63.3196 95.4762 60.9396 89.8762 56.1796 87.4962C49.8796 84.4162 43.1596 85.9562 40.6396 96.4562C37.2796 109.756 53.2396 127.116 53.2396 127.116C53.2396 127.116 76.1996 122.216 81.2396 109.336C85.4396 99.1162 80.8196 93.9362 73.8196 92.9562Z" fill="currentColor"/>
<path d="M82.9197 33.1756C84.4597 29.2556 82.6396 27.2956 79.9796 26.8756C78.0196 26.5956 75.9196 27.8556 75.9196 27.8556C75.9196 27.8556 74.9396 25.6156 73.1196 24.7756C70.7396 23.5156 68.0796 24.2156 67.0996 28.2756C65.8396 33.4556 71.9996 40.0356 71.9996 40.0356C71.9996 40.0356 80.9597 38.2156 82.9197 33.1756Z" fill="currentColor"/>
<path d="M76.2004 58.9401C78.5804 61.6001 81.3804 66.2201 82.9204 89.6001C82.9204 89.6001 85.8604 62.1601 80.8204 57.9601C76.6204 54.3201 73.6804 56.2801 76.2004 58.9401Z" fill="currentColor"/>
<path d="M71.8603 58.0964C72.7108 58.0964 73.4003 57.595 73.4003 56.9764C73.4003 56.3579 72.7108 55.8564 71.8603 55.8564C71.0098 55.8564 70.3203 56.3579 70.3203 56.9764C70.3203 57.595 71.0098 58.0964 71.8603 58.0964Z" fill="currentColor"/>
</svg>
