<svg width="138" height="149" viewBox="0 0 138 149" fill="none" xmlns="http://www.w3.org/2000/svg">
<path d="M92.3999 24.9095C94.6499 12.9785 87.4499 8.52083 78.5998 9.04526C71.8498 9.43859 66.2999 14.1585 66.2999 14.1585C66.2999 14.1585 61.7999 8.52083 55.3499 7.07863C46.7999 5.11199 38.8499 8.38972 38.3999 20.4517C38.0999 30.416 48.4499 40.3803 55.6498 46.0179C55.4998 46.0179 55.3499 46.0179 55.1999 46.0179C53.5499 46.0179 51.5999 46.2801 49.4999 46.8046C49.0499 46.9357 48.7499 47.1979 48.5999 47.5912C48.4499 47.9846 48.5999 48.3779 48.8999 48.6401C52.1999 51.9178 56.0999 52.5734 58.6499 52.5734C59.3999 52.5734 59.9999 52.5734 60.5999 52.4423C59.6999 54.8022 58.1999 56.5066 56.6999 58.3422C55.7999 59.391 54.8999 60.4399 53.9999 61.6199C53.0998 59.7844 50.3999 57.0311 42.8999 54.8022C42.4499 54.6711 41.9999 54.8022 41.5499 55.0644C41.2499 55.3267 41.0999 55.8511 41.3999 56.2444C44.2499 61.8821 50.6999 63.9799 52.4999 64.5043C52.0499 65.8154 51.7499 67.2576 51.7499 69.0931C51.7499 73.1575 54.1499 75.7797 56.3999 78.4018C57.8999 80.1062 59.2499 81.6796 59.9999 83.6462H39.2999C38.6999 83.6462 38.0999 84.1706 38.0999 84.6951V101.739C38.0999 106.852 40.3499 111.572 44.0999 114.981C37.4999 115.637 33.1499 116.948 33.1499 118.783C33.1499 121.93 45.2999 124.552 60.2999 124.552C75.2999 124.552 87.4499 121.93 87.4499 118.783C87.4499 116.948 83.2498 115.637 76.7998 114.981C80.5498 111.441 82.7999 106.852 82.7999 101.608V84.564C82.7999 84.0395 82.1999 83.5151 81.5999 83.5151H61.6499C60.8999 81.1551 59.2499 79.3196 57.5999 77.353C56.9999 76.6974 56.3999 76.0419 55.9499 75.3863C56.2499 75.3863 56.5499 75.3863 56.8499 75.3863C59.0999 75.3863 62.8498 74.5997 68.0998 70.6664C68.3998 70.4042 68.5499 70.0109 68.5499 69.4864C68.3998 69.0931 67.9499 68.8309 67.4999 68.6998C66.8999 68.6998 66.2999 68.5687 65.6999 68.5687C59.9999 68.5687 55.6499 71.4531 54.1499 72.5019C53.5499 71.322 53.2499 70.142 53.2499 68.6998C53.2499 63.9799 55.4999 61.4888 57.7499 58.8666C59.3999 57.0311 61.0499 55.0644 62.0998 52.3111C62.9998 52.8356 64.4999 53.4911 66.4499 53.4911C69.2999 53.4911 72.2999 52.3111 75.5998 50.0823C75.8998 49.8201 76.0499 49.5579 76.0499 49.1645C76.0499 48.7712 75.7499 48.509 75.4499 48.3779C73.6499 47.5912 71.8499 47.1979 69.8999 47.0668C78.2999 42.8714 90.5999 34.8737 92.3999 24.9095ZM45.4499 57.8177C48.8998 59.1288 50.3999 60.571 51.2999 61.6199C49.4999 60.9643 47.2499 59.7844 45.4499 57.8177ZM60.4499 85.6128C60.5998 87.1861 60.4499 88.8906 59.6999 90.8572L56.0998 87.8417L47.8499 94.9216L40.4999 88.6283V85.7439H60.4499V85.6128ZM80.2499 101.608C80.2499 101.87 80.2499 102.133 80.2499 102.395L72.4499 95.7082L64.1999 102.788L56.0998 95.7082L47.8499 102.788L40.4999 96.3638V93.4794L47.8499 99.9037L56.0998 92.8238L64.3499 99.9037L72.5999 92.8238L80.3999 99.5104V101.608H80.2499ZM40.4999 98.4615L47.8499 104.886L56.0998 97.806L64.3499 104.886L72.5999 97.806L80.0999 104.361C78.5999 112.752 70.3498 119.177 60.4499 119.177C49.4998 119.177 40.4999 111.31 40.4999 101.739V98.4615ZM80.2499 85.6128V94.5282L72.4499 87.8417L64.1999 94.9216L60.1499 91.3816L60.8999 91.6438C61.7999 89.2839 62.0999 87.3172 61.9499 85.4817H80.2499V85.6128ZM63.5998 71.0597C60.7499 72.7642 58.6499 73.2886 57.2999 73.2886C58.7999 72.5019 61.0499 71.4531 63.5998 71.0597ZM52.1999 48.3779C53.2499 48.2468 54.1499 48.1157 55.0499 48.1157C58.3498 48.1157 59.9999 49.2956 60.7499 50.0823C60.1499 50.2134 59.3999 50.2134 58.6499 50.2134C56.2499 50.3445 53.9999 49.689 52.1999 48.3779ZM66.5999 51.5245C65.3999 51.5245 64.3499 51.2623 63.7499 50.8689C64.9499 50.2134 67.0499 49.2956 69.5999 49.2956C70.4999 49.2956 71.5499 49.4268 72.4499 49.689C70.3499 50.8689 68.3999 51.5245 66.5999 51.5245Z" fill="currentColor"/>
</svg>
