<svg width="41" height="39" viewBox="0 0 41 39" fill="none" xmlns="http://www.w3.org/2000/svg">
<path d="M39.0719 21.0467C36.0393 20.4626 33.0067 19.8786 29.9742 19.2946C30.6421 18.8694 31.3322 18.4705 32.0058 18.059C33.8853 16.9107 35.7648 15.7625 37.6442 14.6143C40.3903 12.9366 37.8801 8.6111 35.1207 10.2969C32.9727 11.6092 30.8247 12.9214 28.6767 14.2337C27.1185 15.1857 24.9392 16.2954 24.5008 18.2405C23.537 18.0549 22.5732 17.8692 21.6094 17.6836C21.7729 16.1189 21.9534 14.556 22.142 12.9939C22.565 12.6857 22.9787 12.3587 23.3905 12.0622C25.3825 10.6278 27.3745 9.19344 29.3666 7.75905C31.9572 5.89363 29.4652 1.55352 26.843 3.4417C25.5997 4.33696 24.323 5.40139 23.0111 6.42553C23.165 5.36364 23.3227 4.30223 23.4896 3.24193C23.9858 0.088733 19.1683 -1.26518 18.6682 1.91274C18.3539 3.91011 18.0659 5.91069 17.7928 7.91298C16.3096 6.47518 15.1651 4.41072 14.4413 2.80175C13.1204 -0.134625 8.81261 2.41014 10.1239 5.32534C11.487 8.35564 13.9777 11.8424 17.0794 13.5065C16.9525 14.584 16.8288 15.6619 16.713 16.7407C15.3746 16.4829 14.0361 16.2251 12.6977 15.9674C12.6964 15.7459 12.6668 15.5263 12.5802 15.3192C11.2746 12.1943 9.56306 9.46047 7.20857 7.01366C4.96938 4.68666 1.43797 8.22649 3.67305 10.5492C4.92738 11.8527 6.01283 13.2799 6.88225 14.8474C5.86452 14.6514 4.84676 14.4554 3.82903 14.2594C0.88826 13.693 -0.476578 17.8543 1.92976 18.9054C1.67625 19.1301 1.41563 19.3452 1.16664 19.576C-1.20299 21.7718 2.34123 25.2993 4.70216 23.1115C5.84367 22.0537 7.03777 21.0906 8.28285 20.1945C10.9286 20.7041 13.5744 21.2136 16.2202 21.7232C16.125 22.7781 16.0372 23.8337 15.9529 24.8896C15.9471 24.8958 15.9414 24.9021 15.9357 24.9083C13.0034 25.8896 9.57777 29.2555 8.27611 30.5127C5.95338 32.7561 9.49281 36.2878 11.8116 34.0482C12.7191 33.1717 13.6542 32.3176 14.6538 31.5461C14.9426 31.3232 15.239 31.1103 15.537 30.8997C15.4337 32.6388 15.3407 34.3787 15.2699 36.1204C15.139 39.3458 20.1395 39.3331 20.2699 36.1204C20.3126 35.0698 20.3623 34.0197 20.4166 32.9699C21.1298 33.8333 21.8242 34.7132 22.475 35.6303C24.3242 38.2363 28.6629 35.7427 26.7923 33.1067C25.0007 30.5819 23.0315 28.21 20.8588 26.0159C20.9433 24.8997 21.0339 23.784 21.1308 22.6688C22.8778 23.0053 24.6248 23.3418 26.3718 23.6782C26.6233 24.0168 26.884 24.358 27.145 24.7101C28.6862 26.7892 29.9479 29.1126 30.9149 31.5098C32.1051 34.4603 36.9433 33.1728 35.7363 30.1806C35.0116 28.3842 34.1897 26.6575 33.241 25.0011C34.7416 25.2901 36.2421 25.5791 37.7427 25.8681C40.8926 26.4747 42.236 21.656 39.0719 21.0467Z" fill="currentColor"/>
</svg>
