<svg width="25" height="25" viewBox="0 0 25 25" fill="none" xmlns="http://www.w3.org/2000/svg">
<path d="M12.5 6.66699C11.1193 6.66699 10 7.78628 10 9.16699V10.0003H15V9.16699C15 7.78628 13.8807 6.66699 12.5 6.66699Z" fill="currentColor"/>
<path fill-rule="evenodd" clip-rule="evenodd" d="M12.5 0C19.4035 0 25 5.59643 25 12.5C25 19.4035 19.4035 25 12.5 25C5.59643 25 -4.24078e-06 19.4035 0 12.5C0 5.59643 5.59643 -4.24078e-06 12.5 0ZM8.33333 9.16667V10.1423C7.36233 10.4854 6.66667 11.4115 6.66667 12.5V17.5C6.66667 18.8807 7.78595 20 9.16667 20H15.8333C17.214 20 18.3333 18.8807 18.3333 17.5V12.5C18.3333 11.4115 17.6377 10.4854 16.6667 10.1423V9.16667C16.6667 6.86548 14.8012 5 12.5 5C10.1988 5 8.33333 6.86548 8.33333 9.16667Z" fill="currentColor"/>
</svg>
