<svg width="150" height="188" viewBox="0 0 150 188" fill="none" xmlns="http://www.w3.org/2000/svg">
<path d="M107.599 86.5903L73.5001 94.6779L39.1821 86.5903L63.6637 80.6885C64.1009 81.7814 64.7567 82.8743 65.8496 83.3115V87.4646C65.8496 89.4319 67.5983 91.1806 69.5655 91.1806C70.4399 92.4921 71.97 93.3664 73.5001 93.3664C75.2488 93.3664 76.5603 92.4921 77.4346 91.1806C79.6205 91.1806 81.1506 89.4319 81.1506 87.4646V83.3115C82.0249 82.6557 82.8993 81.7814 83.3364 80.9071L107.599 86.5903Z" fill="currentColor"/>
<path d="M112.19 108.445V133.145C112.19 135.55 110.441 137.735 108.036 138.391L77.4344 145.823C76.1229 146.26 74.5928 146.26 73.0627 146.26C71.5326 146.26 70.2211 146.042 68.691 145.823L38.089 138.391C35.9031 137.735 34.373 135.55 34.373 133.145V108.226L54.4829 114.347C55.1387 114.565 55.5759 114.565 56.2316 114.565C57.7617 114.565 59.2918 113.91 60.3847 112.817L73.4999 100.139L86.615 112.817C87.708 113.91 89.2381 114.565 90.7682 114.565C91.4239 114.565 92.0797 114.565 92.5169 114.347L112.19 108.445Z" fill="currentColor"/>
<path d="M125.523 99.4853L112.408 87.6816L73.5 97.0808L88.3638 111.289C89.4568 112.382 90.7683 112.6 92.2984 112.163L125.086 102.327C125.961 101.89 126.398 100.36 125.523 99.4853Z" fill="currentColor"/>
<path d="M21.4766 99.4853L34.5917 87.6816L73.5 97.0808L58.6362 111.289C57.5432 112.382 56.2317 112.6 54.7016 112.163L21.9138 102.327C21.0394 101.89 20.6022 100.36 21.4766 99.4853Z" fill="currentColor"/>
<path d="M71.0955 63.8603V65.1719H68.2539C67.5981 65.1719 66.9424 64.5161 66.9424 63.8603C66.9424 63.2046 67.5981 62.5488 68.2539 62.5488H69.784C70.4398 62.5488 71.0955 63.2046 71.0955 63.8603Z" fill="currentColor"/>
<path d="M79.1834 65.1719H76.3418V63.8603C76.3418 63.2046 76.9976 62.5488 77.6533 62.5488H79.1834C79.8392 62.5488 80.4949 63.2046 80.4949 63.8603C80.4949 64.5161 79.8392 65.1719 79.1834 65.1719Z" fill="currentColor"/>
<path d="M79.4021 83.9697V87.4671C79.4021 88.3414 78.7463 88.9972 77.872 88.9972H76.3419C76.1233 90.3087 75.0304 91.183 73.7189 91.183C72.4074 91.183 71.3144 90.3087 71.0958 88.9972H69.5657C68.6914 88.9972 68.0356 88.3414 68.0356 87.4671V83.9697H68.2542H79.4021C79.1835 83.9697 79.4021 83.9697 79.4021 83.9697Z" fill="currentColor"/>
<path d="M75.0301 66.2617H72.1885V81.7813H75.0301V66.2617Z" fill="currentColor"/>
<path d="M90.5496 58.6125C90.5496 69.979 83.3362 70.8533 81.8061 79.5967C81.5876 80.9082 80.4946 81.7826 79.1831 81.7826H76.3415V66.263H79.1831C80.4946 66.263 81.5876 65.1701 81.5876 63.8586C81.5876 62.5471 80.4946 61.4541 79.1831 61.4541H77.653C76.3415 61.4541 75.2486 62.5471 75.2486 63.8586V65.1701H72.407V63.8586C72.407 62.5471 71.314 61.4541 70.0025 61.4541H68.4724C67.1609 61.4541 66.068 62.5471 66.068 63.8586C66.068 65.1701 67.1609 66.263 68.4724 66.263H71.314V81.7826H68.4724C67.1609 81.7826 66.068 80.9082 65.8494 79.5967C64.3193 70.8533 57.106 69.7604 57.106 58.6125C57.106 49.4319 64.5379 42 73.7185 42C82.8991 42 90.5496 49.4319 90.5496 58.6125Z" fill="currentColor"/>
</svg>
