<svg width="305" height="278" viewBox="0 0 305 278" fill="none" xmlns="http://www.w3.org/2000/svg">
<g filter="url(#filter0_d)">
<circle cx="154" cy="135" r="130" fill="white" stroke="#D4E3FF" stroke-width="10"/>
<g filter="url(#filter1_d)">
<path d="M34.9116 116.919H32.6213C31.9413 114.283 30.5361 111.89 28.5654 110.012C26.5947 108.135 24.1376 106.848 21.4734 106.299C18.8089 105.75 16.0441 105.96 13.4931 106.906C10.9421 107.851 8.70722 109.493 7.04208 111.648C5.37711 113.801 4.34892 116.38 4.07429 119.089C3.79967 121.8 4.28976 124.532 5.48864 126.976C6.68751 129.422 8.54735 131.48 10.8567 132.92C13.1659 134.36 15.8322 135.122 18.5524 135.119H34.9116C37.322 135.119 39.6331 134.16 41.3383 132.453C43.0418 130.748 44 128.433 44 126.02C44 123.606 43.0418 121.291 41.3383 119.584C39.6331 117.879 37.322 116.919 34.9116 116.919Z" fill="#FED8C5"/>
</g>
<g filter="url(#filter2_d)">
<path d="M285.309 50.7499H281.582C280.475 46.4633 278.188 42.5731 274.98 39.5213C271.773 36.4695 267.774 34.3785 263.438 33.4859C259.102 32.5934 254.602 32.935 250.45 34.472C246.298 36.009 242.661 38.6798 239.951 42.1808C237.241 45.6818 235.568 49.8727 235.121 54.2773C234.674 58.6819 235.471 63.1236 237.422 67.0976C239.374 71.0716 242.4 74.4186 246.159 76.7583C249.917 79.098 254.257 80.3366 258.684 80.3333H285.309C289.232 80.3333 292.994 78.7749 295.768 76.0009C298.542 73.2269 300.101 69.4646 300.101 65.5416C300.101 61.6186 298.542 57.8563 295.768 55.0823C292.994 52.3083 289.232 50.7499 285.309 50.7499Z" fill="#D4E3FF"/>
</g>
</g>
<defs>
<filter id="filter0_d" x="0" y="0" width="304.101" height="278" filterUnits="userSpaceOnUse" color-interpolation-filters="sRGB">
<feFlood flood-opacity="0" result="BackgroundImageFix"/>
<feColorMatrix in="SourceAlpha" type="matrix" values="0 0 0 0 0 0 0 0 0 0 0 0 0 0 0 0 0 0 127 0"/>
<feOffset dy="4"/>
<feGaussianBlur stdDeviation="2"/>
<feColorMatrix type="matrix" values="0 0 0 0 0 0 0 0 0 0 0 0 0 0 0 0 0 0 0.25 0"/>
<feBlend mode="normal" in2="BackgroundImageFix" result="effect1_dropShadow"/>
<feBlend mode="normal" in="SourceGraphic" in2="effect1_dropShadow" result="shape"/>
</filter>
<filter id="filter1_d" x="0" y="106" width="48" height="37.1185" filterUnits="userSpaceOnUse" color-interpolation-filters="sRGB">
<feFlood flood-opacity="0" result="BackgroundImageFix"/>
<feColorMatrix in="SourceAlpha" type="matrix" values="0 0 0 0 0 0 0 0 0 0 0 0 0 0 0 0 0 0 127 0"/>
<feOffset dy="4"/>
<feGaussianBlur stdDeviation="2"/>
<feColorMatrix type="matrix" values="0 0 0 0 0 0 0 0 0 0 0 0 0 0 0 0 0 0 0.25 0"/>
<feBlend mode="normal" in2="BackgroundImageFix" result="effect1_dropShadow"/>
<feBlend mode="normal" in="SourceGraphic" in2="effect1_dropShadow" result="shape"/>
</filter>
<filter id="filter2_d" x="231" y="33" width="73.101" height="55.3333" filterUnits="userSpaceOnUse" color-interpolation-filters="sRGB">
<feFlood flood-opacity="0" result="BackgroundImageFix"/>
<feColorMatrix in="SourceAlpha" type="matrix" values="0 0 0 0 0 0 0 0 0 0 0 0 0 0 0 0 0 0 127 0"/>
<feOffset dy="4"/>
<feGaussianBlur stdDeviation="2"/>
<feColorMatrix type="matrix" values="0 0 0 0 0 0 0 0 0 0 0 0 0 0 0 0 0 0 0.25 0"/>
<feBlend mode="normal" in2="BackgroundImageFix" result="effect1_dropShadow"/>
<feBlend mode="normal" in="SourceGraphic" in2="effect1_dropShadow" result="shape"/>
</filter>
</defs>
</svg>
