<svg width="130" height="163" viewBox="0 0 130 163" fill="none" xmlns="http://www.w3.org/2000/svg">
<path d="M122.066 82.9658C119.73 74.8967 107.9 50.9039 105.698 46.5749C101.923 39.1454 92.529 42.5917 96.2171 50.549C97.1076 52.4717 102.08 63.4372 103.396 65.9826C101.119 65.3794 98.7638 65.0765 96.3445 65.0765C86.5776 65.0765 80.4065 69.3262 77.0122 72.7582H53.6993C50.305 69.3262 44.1326 65.0765 34.3657 65.0765C31.949 65.0765 29.5921 65.3794 27.3158 65.9826C28.6314 63.4372 33.6039 52.4717 34.4944 50.549C38.1812 42.5917 28.79 39.1454 25.0122 46.5749C22.8113 50.9039 10.9813 74.898 8.64391 82.9658C7.50901 86.0208 6.93311 89.2305 6.93311 92.5065C6.93311 107.633 19.2389 119.942 34.3644 119.942C44.8424 119.942 54.2557 114.107 58.9292 104.721C59.7599 103.056 60.419 101.306 60.8896 99.5174C61.4928 97.232 61.7983 94.8764 61.7983 92.5065C61.7983 90.7866 61.316 87.3754 61.316 87.3754H69.3955C69.3955 87.3754 68.9132 90.7866 68.9132 92.5065C68.9132 94.8751 69.2174 97.232 69.8219 99.5174C70.2912 101.306 70.9516 103.056 71.7823 104.721C76.4545 114.107 85.8665 119.942 96.3458 119.942C111.473 119.942 123.778 107.633 123.778 92.5065C123.777 89.2305 123.203 86.0208 122.066 82.9658ZM49.7109 98.1771C47.3345 104.583 41.1673 108.888 34.3657 108.888C25.3333 108.888 17.9857 101.539 17.9857 92.5052C17.9857 90.9387 18.2093 89.3839 18.6539 87.8798C18.8281 87.4547 18.9997 86.923 19.0543 86.7488C21.4541 80.3931 27.6018 76.1252 34.3657 76.1252C41.1673 76.1252 47.3345 80.4295 49.7109 86.8372C50.3986 88.6884 50.747 90.5968 50.747 92.5052C50.7483 94.4162 50.3999 96.3259 49.7109 98.1771ZM96.3458 108.888C89.5455 108.888 83.3783 104.582 81.0006 98.1771C80.3129 96.3259 79.9645 94.4162 79.9645 92.5065C79.9645 90.5981 80.3129 88.6897 81.0006 86.8385C83.3783 80.4308 89.5442 76.1265 96.3458 76.1265C103.11 76.1265 109.259 80.3944 111.657 86.7501C111.712 86.923 111.883 87.4547 112.059 87.8811C112.501 89.3852 112.727 90.94 112.727 92.5065C112.726 101.539 105.378 108.888 96.3458 108.888Z" fill="currentColor"/>
</svg>
