<svg width="15" height="15" viewBox="0 0 15 15" fill="none" xmlns="http://www.w3.org/2000/svg">
<path d="M1.27837 0C0.572344 0 0 0.572344 0 1.27837V4.49986C0 6.73013 1.62256 8.58145 3.75163 8.93776C3.76357 7.69993 4.15038 6.55171 4.80398 5.60129L3.16281 3.96012C2.94315 3.74046 2.94315 3.38431 3.16281 3.16465C3.38248 2.94499 3.73862 2.94499 3.95828 3.16465L5.52837 4.73474C6.39261 3.87846 7.51584 3.28318 8.7701 3.07688C8.17462 1.28906 6.48778 0 4.49986 0H1.27837Z" fill="currentColor"/>
<path d="M5.66339 12.2897L3.91291 14.0392C3.69318 14.2588 3.69308 14.6149 3.91267 14.8346C4.13227 15.0543 4.48841 15.0545 4.70814 14.8348L6.4589 13.0851C7.35932 13.8111 8.50446 14.2457 9.75114 14.2457C12.65 14.2457 15 11.8957 15 8.99686V5.0605C15 4.33565 14.4124 3.74805 13.6875 3.74805H9.75114C6.85226 3.74805 4.50229 6.09805 4.50229 8.99686C4.50229 10.2438 4.93711 11.3892 5.66339 12.2897ZM10.333 9.21345L7.2616 12.2848C6.96153 12.0573 6.69357 11.7896 6.46573 11.4898L9.53755 8.41795C9.75714 8.19828 10.1133 8.19828 10.333 8.41795C10.5526 8.63762 10.5526 8.99378 10.333 9.21345Z" fill="currentColor"/>
</svg>
