<svg width="16" height="17" viewBox="0 0 16 17" fill="none" xmlns="http://www.w3.org/2000/svg">
<path d="M8.18426 6.07913C8.01692 5.70996 7.58183 5.54671 7.21266 5.7143C6.84375 5.88164 6.67998 6.31647 6.84758 6.6859L9.2928 12.0712V15.3462C9.2928 15.7517 9.62109 16.0802 10.0263 16.0802C10.432 16.0802 10.7603 15.7517 10.7603 15.3462V11.8796C10.7605 11.723 10.7107 11.5784 10.6269 11.4591L8.18426 6.07913Z" fill="currentColor"/>
<path d="M15.5697 5.74559C15.2005 5.578 14.7654 5.74099 14.5976 6.11042L12.158 11.484C12.0847 11.5982 12.0407 11.7338 12.0407 11.8795V15.3463C12.0407 15.7518 12.369 16.0803 12.7747 16.0803C13.1804 16.0803 13.5087 15.7518 13.5087 15.3463V12.0593L15.9337 6.71719C16.1021 6.34802 15.9383 5.91293 15.5697 5.74559Z" fill="currentColor"/>
<path d="M14.0854 3.09671C14.0854 1.61671 12.8808 0.412109 11.4008 0.412109C9.92023 0.412109 8.71564 1.61671 8.71564 3.09671C8.71564 4.57698 9.92023 5.78157 11.4008 5.78157C12.8808 5.78157 14.0854 4.57723 14.0854 3.09671ZM11.4008 4.43876C10.6609 4.43876 10.059 3.83684 10.059 3.09697C10.059 2.35735 10.6606 1.75543 11.4008 1.75543C12.1404 1.75543 12.742 2.35735 12.742 3.09697C12.742 3.83659 12.1401 4.43876 11.4008 4.43876Z" fill="currentColor"/>
<path d="M3.92228 11.2132H1.86028L3.88779 6.74759C4.05615 6.37689 3.89213 5.93976 3.52092 5.77139C3.15021 5.60278 2.71283 5.76679 2.54446 6.13775L0.0652677 11.5984C-0.0218516 11.7905 -0.0182753 11.9995 0.0553035 12.1807C0.152642 12.474 0.426263 12.6875 0.752514 12.6875H3.20029V15.4496C3.20029 15.8573 3.53037 16.1874 3.93786 16.1874C4.34536 16.1874 4.67518 15.8573 4.67518 15.4496V11.9663C4.67544 11.7589 4.58909 11.5721 4.45087 11.4382C4.31674 11.2995 4.12998 11.2132 3.92228 11.2132Z" fill="currentColor"/>
<path d="M6.79361 11.2266C6.38662 11.2266 6.05603 11.5566 6.05603 11.9639V15.4479C6.05603 15.8556 6.38662 16.1857 6.79361 16.1857C7.2011 16.1857 7.53118 15.8556 7.53118 15.4479V11.9639C7.53118 11.5566 7.2011 11.2266 6.79361 11.2266Z" fill="currentColor"/>
<path d="M7.80817 2.69789C7.80817 1.21073 6.59744 0 5.11054 0C3.62338 0 2.4129 1.21047 2.4129 2.69789C2.4129 4.18505 3.62338 5.39552 5.11054 5.39552C6.59744 5.39552 7.80817 4.18479 7.80817 2.69789ZM5.11054 4.04581C4.36734 4.04581 3.7621 3.44083 3.7621 2.69763C3.7621 1.95444 4.36734 1.34946 5.11054 1.34946C5.85373 1.34946 6.45846 1.95444 6.45846 2.69763C6.45846 3.44083 5.85348 4.04581 5.11054 4.04581Z" fill="currentColor"/>
</svg>
