<svg width="15" height="19" viewBox="0 0 15 19" fill="none" xmlns="http://www.w3.org/2000/svg">
<path d="M2.24891 0.555613L3.77808 0.0946823C4.82216 -0.22003 5.93769 0.288575 6.38482 1.28318L7.45679 3.66773C7.83789 4.51549 7.63705 5.51181 6.95727 6.14571L5.32545 7.66739C5.10625 7.87469 5.27182 8.68388 6.07143 10.0688C6.87102 11.4537 7.48898 12.0017 7.77415 11.9167L9.91218 11.2631C10.8008 10.9914 11.7638 11.3154 12.3075 12.0689L13.831 14.1803C14.4674 15.0623 14.3529 16.2791 13.5633 17.027L12.3854 18.1424C11.6112 18.8756 10.5026 19.1358 9.4831 18.8237C7.01531 18.0684 4.72972 15.826 2.59551 12.1295C0.45753 8.42635 -0.350797 5.30368 0.21238 2.75211C0.443435 1.7052 1.22243 0.86502 2.24891 0.555613Z" fill="currentColor"/>
</svg>
