<svg width="15" height="19" viewBox="0 0 15 19" fill="none" xmlns="http://www.w3.org/2000/svg">
<path d="M7.5 0C4.91119 0 2.8125 2.09866 2.8125 4.6875C2.8125 7.27631 4.91119 9.375 7.5 9.375C10.0888 9.375 12.1875 7.27631 12.1875 4.6875C12.1875 2.09866 10.0888 0 7.5 0Z" fill="currentColor"/>
<path d="M1.99213 11.25C0.892153 11.25 9.61125e-06 12.1412 1.28522e-06 13.2417L0 13.5938C0 15.3541 0.910158 16.672 2.30633 17.522C3.67926 18.3578 5.52473 18.75 7.5 18.75C9.47527 18.75 11.3207 18.3578 12.6937 17.522C14.0898 16.672 15 15.3541 15 13.5938V13.2416C15 12.1411 14.1078 11.25 13.0079 11.25H1.99213Z" fill="currentColor"/>
</svg>
