<svg width="81" height="114" viewBox="0 0 81 114" fill="none" xmlns="http://www.w3.org/2000/svg">
<path fill-rule="evenodd" clip-rule="evenodd" d="M32.3229 59.9646C31.1026 53.5794 19.3265 51.5663 16.3872 59.8284C14.8536 52.803 3.38539 52.0675 0.451564 59.6921C0.642318 37.3821 18.6429 19.6868 40.9528 19.8775C62.944 20.0656 80.6394 38.0661 80.4486 60.3761C77.6456 52.7024 66.1665 53.2418 64.513 60.2398C62.0341 51.9315 50.2254 53.7429 48.5773 60.1036C47.3651 52.7623 33.6604 52.6451 32.3229 59.9646Z" fill="currentColor"/>
<path d="M36.9977 109.918C36.9279 113.587 40.1146 113.648 40.1843 109.978L41.2604 53.3697C41.2704 52.8456 41.6887 47.6101 43.6306 46.074C44.6065 45.0438 45.5526 45.5861 46.4986 46.1285C47.7534 47.201 48.6595 49.84 48.2711 53.503C48.2113 56.6479 51.398 56.7085 51.4578 53.5636C51.896 47.2798 50.0538 43.5743 47.863 41.4353C46.2995 39.8326 44.0688 39.7901 42.4456 41.3323C40.1851 42.8624 38.1933 47.0193 38.0738 53.3091L36.9977 109.918Z" fill="currentColor"/>
<path fill-rule="evenodd" clip-rule="evenodd" d="M28.5802 13.0765C29.5309 13.7221 27.8937 18.8079 27.5696 19.4426C25.3113 22.6106 20.5606 19.0639 22.8188 15.8958C23.4617 15.2639 27.9482 12.4336 28.5802 13.0765Z" fill="currentColor"/>
<path fill-rule="evenodd" clip-rule="evenodd" d="M45.2188 5.57004C46.1695 6.21564 44.5324 11.3014 44.2055 12.2549C41.6313 15.1015 37.1992 11.5575 39.4548 8.70813C40.1004 7.75744 44.5869 4.92716 45.2188 5.57004Z" fill="currentColor"/>
<path fill-rule="evenodd" clip-rule="evenodd" d="M55.3764 10.4378C56.0084 11.0807 54.69 16.1692 54.0444 17.1199C51.7888 19.9692 47.0381 16.4225 49.6123 13.5759C49.9392 12.6225 54.4258 9.79219 55.3764 10.4378Z" fill="currentColor"/>
<path fill-rule="evenodd" clip-rule="evenodd" d="M69.6829 14.7017C70.6364 15.0286 68.9992 20.1144 68.3536 21.0651C66.0954 24.2332 61.6634 20.6891 63.9216 17.5211C64.5645 16.8891 69.051 14.0588 69.6829 14.7017Z" fill="currentColor"/>
<path fill-rule="evenodd" clip-rule="evenodd" d="M66.297 0.650378C67.2477 1.29598 65.9292 6.3845 65.2836 7.33519C63.0281 10.1845 58.2774 6.63781 60.5329 3.78846C61.1785 2.83777 65.665 0.00750116 66.297 0.650378Z" fill="currentColor"/>
<path fill-rule="evenodd" clip-rule="evenodd" d="M79.9799 3.31505C80.6119 3.95793 79.2935 9.04645 78.6506 9.67842C76.3923 12.8465 71.6416 9.29976 74.2186 6.13442C74.5427 5.49972 79.0292 2.66945 79.9799 3.31505Z" fill="currentColor"/>
<path fill-rule="evenodd" clip-rule="evenodd" d="M76.9539 21.7781C77.9046 22.4237 76.2675 27.5095 75.6246 28.1414C73.3664 31.3095 68.9344 27.7655 71.1899 24.9162C71.8355 23.9655 76.322 21.1352 76.9539 21.7781Z" fill="currentColor"/>
</svg>
