<svg width="111" height="160" viewBox="0 0 111 160" fill="none" xmlns="http://www.w3.org/2000/svg">
<g clip-path="url(#clip0)">
<path fill-rule="evenodd" clip-rule="evenodd" d="M34.0079 82.7044C32.6655 75.6807 19.7119 73.4663 16.4787 82.5546C14.7917 74.8267 2.17666 74.0176 -1.05055 82.4047C-0.840715 57.8637 18.9599 38.3988 43.5008 38.6087C67.6912 38.8155 87.1561 58.6161 86.9462 83.1571C83.8629 74.716 71.2359 75.3093 69.417 83.0072C66.6902 73.868 53.7006 75.8606 51.8878 82.8573C50.5544 74.7819 35.4792 74.653 34.0079 82.7044Z" fill="#F0F5FF"/>
<path d="M39.1503 137.654C39.0735 141.69 42.5789 141.756 42.6556 137.72L43.8393 75.4508C43.8503 74.8743 44.3104 69.1152 46.4465 67.4255C47.52 66.2923 48.5607 66.8889 49.6013 67.4855C50.9815 68.6653 51.9783 71.5681 51.5511 75.5974C51.4853 79.0569 54.9907 79.1235 55.0564 75.6641C55.5385 68.7519 53.512 64.6759 51.1021 62.323C49.3823 60.5599 46.9286 60.5133 45.143 62.2097C42.6564 63.8928 40.4655 68.4654 40.334 75.3842L39.1503 137.654Z" fill="#F0F5FF"/>
<path fill-rule="evenodd" clip-rule="evenodd" d="M29.8909 31.1277C30.9367 31.8378 29.1358 37.4322 28.7792 38.1304C26.2951 41.6152 21.0693 37.7138 23.5534 34.229C24.2606 33.5338 29.1957 30.4205 29.8909 31.1277Z" fill="#F0F5FF"/>
<path fill-rule="evenodd" clip-rule="evenodd" d="M48.1939 22.8712C49.2396 23.5814 47.4387 29.1758 47.0792 30.2245C44.2475 33.3558 39.3723 29.4574 41.8534 26.3231C42.5635 25.2774 47.4987 22.1641 48.1939 22.8712Z" fill="#F0F5FF"/>
<path fill-rule="evenodd" clip-rule="evenodd" d="M59.3667 28.2254C60.0619 28.9326 58.6116 34.53 57.9014 35.5757C55.4204 38.71 50.1945 34.8086 53.0262 31.6773C53.3858 30.6286 58.321 27.5153 59.3667 28.2254Z" fill="#F0F5FF"/>
<path fill-rule="evenodd" clip-rule="evenodd" d="M75.1035 32.916C76.1522 33.2756 74.3514 38.87 73.6412 39.9157C71.1571 43.4006 66.2819 39.5022 68.766 36.0173C69.4732 35.3222 74.4083 32.2089 75.1035 32.916Z" fill="#F0F5FF"/>
<path fill-rule="evenodd" clip-rule="evenodd" d="M71.3792 17.4574C72.4249 18.1676 70.9746 23.7649 70.2645 24.8107C67.7834 27.945 62.5576 24.0436 65.0387 20.9093C65.7488 19.8635 70.684 16.7502 71.3792 17.4574Z" fill="#F0F5FF"/>
<path fill-rule="evenodd" clip-rule="evenodd" d="M86.4302 20.3898C87.1254 21.097 85.6751 26.6944 84.9679 27.3895C82.4838 30.8744 77.258 26.973 80.0927 23.4911C80.4493 22.793 85.3844 19.6797 86.4302 20.3898Z" fill="#F0F5FF"/>
<path fill-rule="evenodd" clip-rule="evenodd" d="M83.1015 40.6989C84.1473 41.4091 82.3464 47.0034 81.6392 47.6986C79.1552 51.1835 74.28 47.2851 76.7611 44.1508C77.4712 43.105 82.4064 39.9917 83.1015 40.6989Z" fill="#F0F5FF"/>
</g>
<defs>
<clipPath id="clip0">
<rect width="110" height="158.865" fill="white" transform="translate(0.0429688 0.718262)"/>
</clipPath>
</defs>
</svg>
