<svg width="111" height="160" viewBox="0 0 111 160" fill="none" xmlns="http://www.w3.org/2000/svg">
<path fill-rule="evenodd" clip-rule="evenodd" d="M34.0079 82.7044C32.6655 75.6807 19.7119 73.4663 16.4787 82.5546C14.7917 74.8267 2.17666 74.0176 -1.05055 82.4047C-0.840715 57.8637 18.9599 38.3988 43.5008 38.6087C67.6912 38.8155 87.1561 58.6161 86.9462 83.1571C83.8629 74.716 71.2359 75.3093 69.417 83.0072C66.6902 73.868 53.7006 75.8606 51.8878 82.8573C50.5544 74.7819 35.4792 74.653 34.0079 82.7044Z" fill="currentColor"/>
<path d="M39.1503 137.654C39.0735 141.69 42.5789 141.756 42.6556 137.72L43.8393 75.4508C43.8503 74.8743 44.3104 69.1152 46.4465 67.4255C47.52 66.2923 48.5607 66.8889 49.6013 67.4855C50.9815 68.6653 51.9783 71.5681 51.5511 75.5974C51.4853 79.0569 54.9907 79.1235 55.0564 75.6641C55.5385 68.7519 53.512 64.6759 51.1021 62.323C49.3823 60.5599 46.9286 60.5133 45.143 62.2097C42.6564 63.8928 40.4655 68.4654 40.334 75.3842L39.1503 137.654Z" fill="currentColor"/>
</svg>
