<svg width="68" height="58" viewBox="0 0 68 58" fill="none" xmlns="http://www.w3.org/2000/svg">
<path d="M20.7659 8.56196L18.0685 9.39303C15.9371 10.0497 13.879 10.9617 11.9424 12.1412L20.7659 8.56196ZM20.7659 8.56196L18.147 7.50949M20.7659 8.56196L18.147 7.50949M18.147 7.50949L5.22494 2.31655L5.57527 1.17173C16.7232 3.62659 56.3737 13.737 62.8565 15.3928L62.653 16.5639L58.0848 16.1436L56.9932 16.0431V17.1393V41.3361V42.067L57.6896 42.2889C59.0833 42.7331 60.0875 44.0329 60.0875 45.5626C60.0875 47.475 58.5175 49.0275 56.5863 48.9996C54.7697 48.9729 53.2234 47.4325 53.1905 45.6249C53.1657 44.1675 54.0496 42.9104 55.3216 42.3858L55.9403 42.1306V41.4613V16.8585V15.9462L55.0319 15.8627L46.9898 15.123L44.5196 14.8958L46.1416 16.7726C49.3022 20.4298 50.3369 24.771 50.5251 30.0842L50.5251 30.085C50.5359 30.3832 50.2417 30.6088 49.9616 30.5274L49.6825 31.4877L49.9624 30.5277C42.0267 28.2135 37.0685 29.9024 34.213 31.972L34.2129 31.972C33.2589 32.6637 31.9001 32.3505 31.3258 31.2862L31.3257 31.286C28.6061 26.2484 21.8958 18.6582 6.28462 17.9103L6.28434 17.9102M18.147 7.50949L6.28434 17.9102M6.28434 17.9102C5.99916 17.8967 5.88774 17.5892 6.03891 17.4005M6.28434 17.9102L6.03891 17.4005M6.03891 17.4005C7.68318 15.3502 9.6149 13.5598 11.9421 12.1413L6.03891 17.4005Z" fill="#5096F3" stroke="currentColor" stroke-width="2"/>
</svg>
