<svg width="48" height="48" viewBox="0 0 48 48" fill="none" xmlns="http://www.w3.org/2000/svg">
<path d="M28.959 8.79559L29.1832 9.27133L29.7021 9.35629C29.9191 9.39181 30.1339 9.42693 30.3466 9.4617C33.409 9.9623 36.0304 10.3908 38.1244 10.896C40.4156 11.4488 41.8361 12.0444 42.524 12.7352C42.831 13.0434 42.9696 13.3494 42.9955 13.6945C43.0233 14.0665 42.9264 14.5834 42.57 15.2987C41.8455 16.7527 40.2072 18.7193 37.3521 21.3987L36.9698 21.7575L37.0475 22.276C37.0828 22.512 37.1179 22.7456 37.1525 22.9766C37.6107 26.0295 38.003 28.6434 38.1637 30.7834C38.3406 33.1384 38.2103 34.6771 37.764 35.5475C37.5647 35.9362 37.3157 36.1632 36.9955 36.2946C36.6504 36.4361 36.1295 36.5037 35.3401 36.3856C33.7353 36.1455 31.362 35.1942 27.9358 33.3054L27.4746 33.0512L27.0041 33.2876C26.8219 33.3791 26.6414 33.4699 26.4625 33.5598C23.6668 34.9652 21.2743 36.1679 19.2677 36.9948C17.0839 37.8946 15.5776 38.2493 14.6082 38.0957C14.1746 38.027 13.8798 37.8605 13.6545 37.597C13.412 37.3135 13.1853 36.8404 13.0516 36.0555C12.7796 34.4593 12.9453 31.9132 13.6773 28.0774L13.7755 27.563L13.4087 27.1894C13.2454 27.023 13.0837 26.8585 12.9238 26.6956C10.7527 24.4853 8.89416 22.5932 7.50338 20.9499C5.97592 19.1451 5.17617 17.8205 5.02536 16.8514C4.95797 16.4184 5.0261 16.0873 5.20794 15.7924C5.40376 15.4748 5.78519 15.1139 6.49258 14.7457C7.93088 13.9969 10.4085 13.3727 14.2886 12.8896L14.81 12.8246L15.0523 12.3583C15.1493 12.1716 15.2454 11.9866 15.3406 11.8034C16.782 9.02777 18.0147 6.65409 19.155 4.81104C20.3985 2.80125 21.4114 1.63369 22.2874 1.19287C22.679 0.995866 23.0168 0.958467 23.3569 1.04156C23.7229 1.13098 24.1873 1.38444 24.7595 1.94529C25.9225 3.08534 27.29 5.25246 28.959 8.79559Z" fill="currentColor" stroke="#AF99F1" stroke-width="2"/>
</svg>
