<svg width="58" height="47" viewBox="0 0 58 47" fill="none" xmlns="http://www.w3.org/2000/svg">
<path d="M6.65566 14.0329C6.65566 14.4901 6.28503 14.8607 5.82783 14.8607C5.37063 14.8607 5 14.4901 5 14.0329C5 13.5757 5.37063 13.2051 5.82783 13.2051C6.28503 13.2051 6.65566 13.5757 6.65566 14.0329Z" fill="currentColor" stroke="currentColor" stroke-width="2"/>
<path d="M52.9999 14.0329C52.9999 14.4901 52.6293 14.8607 52.1721 14.8607C51.7149 14.8607 51.3442 14.4901 51.3442 14.0329C51.3442 13.5757 51.7149 13.2051 52.1721 13.2051C52.6293 13.2051 52.9999 13.5757 52.9999 14.0329Z" fill="currentColor" stroke="currentColor" stroke-width="2"/>
<path d="M43.6651 35.8629L43.6651 35.863C43.3758 36.8548 42.4673 37.5605 41.3822 37.5605H16.618C15.5335 37.5605 14.6253 36.8555 14.3355 35.8645C14.3354 35.864 14.3353 35.8635 14.3351 35.863L9.43488 18.8385L14.607 22.6772L14.6069 22.6772L14.6129 22.6815C18.1883 25.2943 23.2773 23.9879 25.1335 19.9318L25.1336 19.9314L28.9498 11.5836L32.868 19.9935C34.6611 23.9183 39.6114 25.2896 43.1874 22.8158C43.1882 22.8153 43.1889 22.8148 43.1896 22.8143L48.5418 19.1501L43.6651 35.8629Z" fill="currentColor" stroke="currentColor" stroke-width="2"/>
<path d="M29.4891 2.85696L29.7088 3.23906L30.1391 3.33468L31.0782 3.54335L30.4527 4.20919L30.1386 4.54352L30.1871 4.99965L30.2886 5.95318L29.4471 5.53246L28.9999 5.30885L28.5527 5.53246L27.7113 5.95318L27.8127 4.99965L27.8612 4.54352L27.5472 4.20919L26.9217 3.54335L27.8607 3.33468L28.291 3.23906L28.5107 2.85696L28.9999 2.00613L29.4891 2.85696Z" fill="currentColor" stroke="currentColor" stroke-width="2"/>
</svg>
