<svg width="15" height="15" viewBox="0 0 15 15" fill="none" xmlns="http://www.w3.org/2000/svg">
<path d="M9.0625 0C5.78331 0 3.125 2.65831 3.125 5.9375C3.125 7.23869 3.54356 8.44213 4.25338 9.42056L0.274563 13.3996C-0.0914993 13.7657 -0.0914993 14.3593 0.274563 14.7254C0.617813 15.0686 1.161 15.0901 1.52919 14.7898L1.60044 14.7254L5.57944 10.7466C6.55787 11.4564 7.76131 11.875 9.0625 11.875C12.3417 11.875 15 9.21669 15 5.9375C15 2.65831 12.3417 0 9.0625 0ZM9.0625 1.875C11.3062 1.875 13.125 3.69384 13.125 5.9375C13.125 8.18119 11.3062 10 9.0625 10C6.81881 10 5 8.18119 5 5.9375C5 3.69384 6.81881 1.875 9.0625 1.875Z" fill="currentColor"/>
</svg>
