<svg width="140" height="152" viewBox="0 0 140 152" fill="none" xmlns="http://www.w3.org/2000/svg">
<path d="M104.58 89.6006C104.16 88.9006 103.74 88.3406 103.32 87.7806C103.32 87.6406 103.18 87.6406 103.18 87.6406C103.04 87.5006 103.04 87.3606 102.9 87.3606C102.62 86.9406 102.2 86.5206 101.78 86.2406L101.64 86.1006C101.22 85.6806 100.66 85.2606 100.1 84.8406L99.3996 84.2806L99.2596 84.1406C98.9796 84.0006 98.8396 83.8606 98.5596 83.8606L98.4196 83.7206C97.7196 83.4406 97.1596 83.1606 96.4596 82.8806C95.7596 82.6006 95.1996 82.6006 94.6396 82.4606H94.4996C93.7996 82.3206 93.0996 82.3206 92.3996 82.3206C92.2596 82.3206 92.1196 82.3206 91.9796 82.3206C91.4196 82.3206 91.1396 82.3206 90.8596 82.4606H90.7196C89.0396 82.6006 87.3596 83.1606 85.8196 84.0006C85.5396 83.5806 85.1196 83.4406 84.6996 83.4406H62.2996C60.4796 81.0606 58.5196 77.9806 56.9796 74.3406C55.7196 71.5406 67.3396 69.7206 74.6196 67.0606C81.8996 64.4006 83.9996 55.8606 83.0196 51.9406C82.0396 47.8806 76.2996 46.9006 69.9996 46.7606C63.6996 46.6206 69.9996 39.6206 69.9996 39.6206C75.3196 34.7206 80.3596 28.2806 80.7796 21.4206C81.4796 9.80058 75.1796 6.16058 67.7596 7.28058C62.1596 8.12058 57.9596 13.1606 57.9596 13.1606C57.9596 13.1606 53.7596 8.12058 48.1596 7.28058C40.7396 6.16058 34.4396 9.80058 35.1396 21.4206C36.1196 36.1206 57.9596 48.5806 57.9596 48.5806C63.6996 52.5006 69.9996 52.2206 69.9996 57.4006C69.9996 62.5806 50.8196 66.3606 50.8196 74.0606C50.8196 77.2806 52.2196 80.6406 53.7596 83.4406H40.0396C39.3396 83.4406 38.7796 84.0006 38.7796 84.7006V105.281C38.7796 111.441 41.1596 117.181 45.0796 121.381C38.0796 122.221 33.5996 123.761 33.5996 126.001C33.5996 129.781 46.4796 133.001 62.2996 133.001C78.1196 133.001 90.9996 129.921 90.9996 126.001C90.9996 123.761 86.5196 122.221 79.6596 121.381C81.0596 119.841 82.3196 118.161 83.2996 116.201C83.8596 116.621 84.5596 116.901 85.2596 116.901C85.5396 116.901 85.8196 116.901 86.0996 116.901C86.6596 116.901 87.2196 116.761 87.7796 116.621C88.1996 116.481 88.6196 116.341 88.7596 116.341H88.8996H89.0396C90.0196 115.921 90.2996 115.781 90.4396 115.501C91.6996 114.381 92.1196 112.701 91.4196 111.161C92.8196 110.881 94.2196 110.601 95.8996 110.041C98.4196 109.201 100.52 107.941 102.06 106.121C102.62 105.561 103.04 105.141 103.32 104.721L103.46 104.581C103.88 104.021 104.3 103.321 104.58 102.901C105.28 101.641 105.7 100.241 106.12 98.8406C106.68 95.7606 106.12 92.4006 104.58 89.6006ZM41.2996 85.9606H83.1596C82.0396 87.0806 81.1996 88.2006 80.4996 89.1806C79.7996 90.3006 79.3796 91.2806 78.9596 92.1206L78.8196 92.2606C78.3996 93.1006 78.1196 93.8006 77.9796 94.2206L77.6996 94.9206C76.9996 96.7406 77.8396 98.8406 79.5196 99.6806C80.0796 99.9606 80.6396 100.101 81.3396 100.101C82.0396 100.101 82.5996 99.9606 83.2996 99.5406V105.141C83.2996 105.281 83.2996 105.421 83.2996 105.421C82.4596 105.981 81.4796 106.821 80.7796 108.081C80.7796 108.081 80.7796 108.081 80.7796 108.221C80.3596 109.061 80.2196 110.041 80.3596 110.881V111.161V111.301V111.441V111.581V111.721V111.861L80.4996 112.141C80.6396 112.561 80.7796 112.841 80.7796 113.121V113.261V113.401C80.9196 113.681 80.9196 113.821 81.0596 114.101C77.6996 121.241 70.4196 126.281 62.0196 126.281C50.3996 126.281 41.0196 116.901 41.0196 105.281V85.9606H41.2996ZM85.9596 95.6206C86.2396 95.0606 86.5196 94.7806 86.9396 94.3606C87.3596 93.9406 87.9196 93.6606 88.3396 93.5206C88.4796 93.5206 88.6196 93.5206 88.6196 93.5206C88.8996 93.5206 89.1796 93.5206 89.5996 93.6606H89.7396C89.8796 93.6606 90.0196 93.8006 90.1596 93.8006C90.1596 93.8006 90.1596 93.8006 90.2996 93.8006C90.4396 93.9406 90.5796 93.9406 90.7196 93.9406H90.8596C90.8596 93.9406 90.8596 93.9406 90.9996 93.9406C91.1396 93.9406 91.2796 94.0806 91.4196 94.0806C91.4196 94.0806 91.5596 94.0806 91.5596 94.2206C91.6996 94.2206 91.6996 94.3606 91.8396 94.3606C91.9796 94.5006 92.1196 94.5006 92.2596 94.6406C92.2596 94.6406 92.2596 94.6406 92.3996 94.6406C93.2396 95.0606 93.6596 95.4806 93.9396 95.9006C94.2196 96.3206 94.4996 96.7406 94.4996 97.1606C94.4996 97.5806 94.4996 97.7206 94.3596 98.0006C94.3596 98.1406 94.2196 98.2806 94.2196 98.4206C94.2196 98.5606 94.0796 98.7006 94.0796 98.8406C94.0796 98.9806 93.9396 99.1206 93.9396 99.1206C93.9396 99.1206 93.9396 99.1206 93.9396 99.2606C93.5196 99.9606 92.8196 100.661 91.9796 101.221C90.9996 101.921 89.8796 102.481 88.4796 103.041C88.0596 103.181 87.7796 103.321 87.3596 103.461C86.9396 103.601 86.5196 103.741 86.0996 103.881V95.6206H85.9596ZM103.6 98.2806C103.32 99.5406 102.9 100.661 102.34 101.641C102.2 101.921 101.78 102.621 101.36 103.041C100.94 103.461 100.66 103.881 100.24 104.301C98.6996 105.981 96.7396 106.961 94.9196 107.521C93.0996 108.221 91.4196 108.361 89.8796 108.641C88.3396 108.921 86.9396 109.061 85.8196 109.481C85.2596 109.621 84.8396 109.901 84.6996 110.041C84.6996 110.181 84.5596 110.321 84.5596 110.461V110.601V110.741C84.5596 110.881 84.5596 111.021 84.5596 111.161C84.5596 111.441 84.6996 111.581 84.6996 111.721C84.8396 111.861 84.8396 112.001 84.9796 112.141C85.1196 112.421 85.2596 112.421 85.5396 112.421C85.9596 112.421 86.3796 112.001 86.5196 111.861C86.7996 111.581 86.7996 111.441 86.7996 111.441C87.0796 111.161 87.3596 111.161 87.6396 111.161C88.0596 111.161 88.3396 111.301 88.6196 111.581C89.0396 112.141 89.0396 112.981 88.4796 113.401C88.4796 113.401 88.1996 113.541 87.7796 113.821C87.4996 113.961 87.2196 114.101 86.7996 114.101C86.5196 114.241 86.2396 114.241 85.8196 114.241C85.6796 114.241 85.5396 114.241 85.2596 114.241C84.6996 114.241 83.9996 113.821 83.5796 113.261C83.4396 112.981 83.2996 112.701 83.1596 112.421C83.0196 112.141 82.8796 111.721 82.8796 111.581C82.8796 111.441 82.8796 111.301 82.7396 111.161V111.021V110.881V110.741V110.461C82.7396 110.041 82.7396 109.621 83.0196 109.201C83.4396 108.361 84.1396 107.801 84.8396 107.521C86.2396 106.821 87.6396 106.261 89.0396 105.701C90.4396 105.141 91.8396 104.441 93.0996 103.741C94.3596 102.901 95.3396 101.921 95.8996 100.801C96.0396 100.521 96.1796 100.241 96.3196 99.9606C96.3196 99.6806 96.4596 99.5406 96.5996 99.1206C96.7396 98.5606 96.8796 98.0006 96.8796 97.4406C96.8796 96.4606 96.4596 95.4806 95.8996 94.6406C95.3396 93.8006 94.4996 93.1006 93.5196 92.6806C93.2396 92.5406 93.0996 92.4006 92.8196 92.2606C92.5396 92.1206 92.3996 91.9806 92.1196 91.8406C91.8396 91.7006 91.6996 91.7006 91.5596 91.5606C91.4196 91.4206 90.9996 91.4206 90.5796 91.2806C90.0196 91.0006 89.3196 90.8606 88.7596 90.8606C88.4796 90.8606 88.0596 90.8606 87.7796 91.0006C86.7996 91.2806 85.9596 91.8406 85.2596 92.4006C84.5596 93.1006 83.9996 93.8006 83.7196 94.3606C83.2996 94.9206 83.1596 95.4806 83.0196 95.9006C82.8796 96.3206 82.8796 96.4606 82.8796 96.4606L82.7396 96.7406C82.4596 97.1606 82.0396 97.4406 81.6196 97.4406C81.4796 97.4406 81.1996 97.4406 81.0596 97.3006C80.4996 97.0206 80.2196 96.3206 80.4996 95.7606C80.4996 95.7606 80.6396 95.4806 80.7796 95.0606C80.9196 94.6406 81.1996 94.0806 81.4796 93.2406C81.7596 92.5406 82.1796 91.5606 82.8796 90.4406C83.5796 89.4606 84.4196 88.2006 85.6796 87.0806C86.9396 85.9606 88.8996 85.1206 91.1396 84.8406C91.4196 84.8406 91.6996 84.7006 92.1196 84.7006C92.2596 84.7006 92.2596 84.7006 92.3996 84.7006C92.9596 84.7006 93.6596 84.7006 94.0796 84.8406C94.6396 84.9806 95.1996 84.9806 95.6196 85.2606C96.1796 85.4006 96.7396 85.5406 97.1596 85.8206C97.4396 85.9606 97.7196 86.1006 97.8596 86.2406L98.5596 86.6606C99.1196 86.9406 99.5396 87.3606 99.9596 87.7806C100.38 88.2006 100.8 88.6206 101.22 89.0406C101.64 89.6006 101.92 90.0206 102.2 90.5806C103.6 93.1006 104.16 95.7606 103.6 98.2806Z" fill="currentColor"/>
</svg>
