<svg width="20" height="20" viewBox="0 0 20 20" fill="none" xmlns="http://www.w3.org/2000/svg">
<path d="M19.9909 2.10929C20.0297 1.87615 19.9423 1.63989 19.7611 1.48827C19.5797 1.33666 19.3317 1.29236 19.1091 1.37186L0.442448 8.03853C0.190945 8.12834 0.0173156 8.35959 0.00121827 8.62617C-0.0148789 8.89274 0.129663 9.14321 0.368531 9.26263L5.70187 11.9293C5.91584 12.0363 6.17075 12.0204 6.3698 11.8877L10.797 8.93626L8.14609 12.2499C8.02937 12.3958 7.97923 12.584 8.00789 12.7686C8.03656 12.9533 8.1414 13.1174 8.29687 13.221L16.2969 18.5543C16.4851 18.6798 16.7241 18.7013 16.9317 18.6114C17.1393 18.5215 17.2871 18.3325 17.3243 18.1093L19.9909 2.10929Z" fill="currentColor"/>
</svg>
