<svg
   width="25"
   height="25"
   viewBox="0 0 25 25"
   fill="none">
  <path
     d="M 12.5,0 C 19.4035,0 25,5.59644 25,12.5 25,19.4035 19.4035,25 12.5,25 5.59644,25 0,19.4035 0,12.5 0,5.59644 5.59644,0 12.5,0 Z m 0,1.875 C 6.632,1.875 1.875,6.63198 1.875,12.5 c 0,5.868 4.757,10.625 10.625,10.625 5.868,0 10.625,-4.757 10.625,-10.625 C 23.125,6.63198 18.368,1.875 12.5,1.875 Z m -1.5625,12.4241 5.5871,-5.58701 c 0.3661,-0.36612 0.9597,-0.36612 1.3258,0 0.3329,0.33284 0.3631,0.85366 0.0907,1.22067 l -0.0907,0.10514 -6.25,6.25 c -0.3328,0.3329 -0.8537,0.3631 -1.2207,0.0907 l -0.1051,-0.0907 -3.125,-3.125 c -0.3661,-0.3661 -0.3661,-0.9597 0,-1.3258 0.3328,-0.3329 0.8537,-0.3631 1.2207,-0.0907 l 0.1051,0.0907 2.4621,2.462 5.5871,-5.58701 z"
     fill="currentColor" />
</svg>
