<svg width="15" height="15" viewBox="0 0 15 15" fill="none" xmlns="http://www.w3.org/2000/svg">
<path d="M7.5 0C11.6421 0 15 3.35786 15 7.5C15 11.6421 11.6421 15 7.5 15C3.35786 15 0 11.6421 0 7.5C0 3.35786 3.35786 0 7.5 0ZM9.91477 5.22725L6.5625 8.57947L5.08525 7.10227C4.86558 6.8826 4.50942 6.8826 4.28975 7.10227C4.07008 7.32195 4.07008 7.67805 4.28975 7.89773L6.16477 9.77273C6.38445 9.9924 6.74055 9.9924 6.96023 9.77273L10.7102 6.02273C10.9299 5.80308 10.9299 5.44692 10.7102 5.22725C10.4906 5.00759 10.1344 5.00759 9.91477 5.22725Z" fill="currentColor"/>
</svg>
