<svg width="28" height="28" viewBox="0 0 28 28" fill="none" xmlns="http://www.w3.org/2000/svg">
<path d="M14 0C19.5228 0 24 4.47715 24 10C24 15.5228 19.5228 20 14 20C8.47715 20 4 15.5228 4 10C4 4.47715 8.47715 0 14 0ZM17.2197 6.96967L12.75 11.4393L10.7803 9.4697C10.4874 9.1768 10.0126 9.1768 9.71967 9.4697C9.42678 9.7626 9.42678 10.2374 9.71967 10.5303L12.2197 13.0303C12.5126 13.3232 12.9874 13.3232 13.2803 13.0303L18.2803 8.0303C18.5732 7.73744 18.5732 7.26256 18.2803 6.96967C17.9874 6.67678 17.5126 6.67678 17.2197 6.96967Z" fill="currentColor"/>
</svg>
