<svg width="33" height="33" viewBox="0 0 33 33" fill="none" xmlns="http://www.w3.org/2000/svg">
<path d="M16.5 0C23.4035 0 29 5.59644 29 12.5C29 19.4035 23.4035 25 16.5 25C9.59644 25 4 19.4035 4 12.5C4 5.59644 9.59644 0 16.5 0ZM16.5 1.875C10.632 1.875 5.875 6.63198 5.875 12.5C5.875 18.368 10.632 23.125 16.5 23.125C22.368 23.125 27.125 18.368 27.125 12.5C27.125 6.63198 22.368 1.875 16.5 1.875ZM14.9375 14.2991L20.5246 8.71209C20.8907 8.34597 21.4843 8.34597 21.8504 8.71209C22.1833 9.04493 22.2135 9.56575 21.9411 9.93276L21.8504 10.0379L15.6004 16.2879C15.2676 16.6208 14.7467 16.651 14.3797 16.3786L14.2746 16.2879L11.1496 13.1629C10.7835 12.7968 10.7835 12.2032 11.1496 11.8371C11.4824 11.5042 12.0033 11.474 12.3703 11.7464L12.4754 11.8371L14.9375 14.2991L20.5246 8.71209L14.9375 14.2991Z" fill="currentColor"/>
</svg>
