<svg width="21" height="21" viewBox="0 0 21 21" fill="none" xmlns="http://www.w3.org/2000/svg">
<path d="M17.2132 3.07151C13.3079 -0.833776 6.97635 -0.833776 3.07107 3.07151C-0.834219 6.9768 -0.834219 13.3084 3.07107 17.2136C6.97635 21.1189 13.3079 21.1189 17.2132 17.2136C21.1185 13.3084 21.1185 6.9768 17.2132 3.07151ZM5.53617 5.76777L5.64134 5.64178L5.76733 5.53661C6.0773 5.32178 6.49115 5.32191 6.80112 5.53674L6.92699 5.64178L10.1406 8.85642L13.3622 5.63689L13.488 5.53186C13.798 5.31702 14.2119 5.3169 14.5218 5.53173L14.6478 5.63689L14.753 5.76289C14.9678 6.07286 14.9677 6.48671 14.7529 6.79668L14.6478 6.92254L11.4277 10.1407L14.6478 13.3598L14.7531 13.4856C14.9678 13.7957 14.9678 14.2095 14.753 14.5194L14.6478 14.6454L14.5218 14.7506C14.2119 14.9654 13.7981 14.9654 13.4882 14.7506L13.3622 14.6454L10.142 11.4263L6.92506 14.6453L6.79906 14.7505C6.48909 14.9653 6.07524 14.9654 5.76527 14.7506L5.63941 14.6453L5.53412 14.5194C5.31928 14.2095 5.31941 13.7956 5.53424 13.4857L5.63941 13.3597L8.85495 10.1421L5.64134 6.92743L5.5363 6.80156C5.32147 6.49159 5.32134 6.07774 5.53617 5.76777Z" fill="currentColor"/>
</svg>
