<svg width="15" height="13" viewBox="0 0 15 13" fill="none" xmlns="http://www.w3.org/2000/svg">
<path d="M14.9773 0.466939C14.964 0.266369 14.8319 0.0932591 14.642 0.0275191C14.452 -0.0382259 14.2412 0.0161791 14.1067 0.165619C13.7611 0.549769 13.3243 0.810089 12.881 0.928779C12.2644 0.353149 11.436 1.91535e-05 10.5256 1.91535e-05C8.57181 1.91535e-05 6.98923 1.58615 6.98923 3.54112V3.98092C3.99799 3.74976 2.39838 1.47748 1.96675 0.324699C1.89698 0.138359 1.72337 0.0111191 1.52468 0.000709137C1.32598 -0.00971286 1.14002 0.0986691 1.05114 0.276689C0.00441813 2.37338 -0.156858 4.40696 0.603899 6.13863C1.27032 7.65556 2.61055 8.86392 4.51008 9.6645C3.64679 10.2763 2.19379 11 0.500039 11C0.279771 11 0.0854497 11.1442 0.0215445 11.355C-0.0423608 11.5658 0.0392055 11.7935 0.222392 11.9158C1.8465 13.0003 3.54865 13.0001 5.13184 13H5.1803C10.041 13 13.98 9.0538 13.98 4.18751V3.70922C14.3434 3.33984 14.6264 2.96173 14.7998 2.4729C14.9932 1.92746 15.0322 1.295 14.9773 0.466939Z" fill="currentColor"/>
</svg>
