<svg width="30" height="38" viewBox="0 0 30 38" fill="none" xmlns="http://www.w3.org/2000/svg">
<path d="M15.0716 0.490234C7.03641 0.490234 0.523071 7.0036 0.523071 15.0388C0.523071 23.0741 7.03644 29.5874 15.0717 29.5874C23.107 29.5874 29.6203 23.0741 29.6203 15.0388C29.6202 7.0036 23.107 0.490234 15.0716 0.490234ZM22.4408 6.43617C24.6067 6.43617 26.3626 8.19211 26.3626 10.358C26.3626 12.5238 24.6067 14.2797 22.4408 14.2797C20.275 14.2797 18.519 12.5238 18.519 10.358C18.519 8.19211 20.275 6.43617 22.4408 6.43617ZM2.89509 15.102C2.89509 12.9362 4.65106 11.1803 6.81689 11.1803C8.98275 11.1803 10.7387 12.9362 10.7387 15.102C10.7387 17.2679 8.98275 19.0238 6.81689 19.0238C4.65106 19.0238 2.89509 17.2679 2.89509 15.102ZM12.4466 27.3102C10.2807 27.3102 8.52478 25.5543 8.52478 23.3884C8.52478 21.2226 10.2807 19.4666 12.4466 19.4666C14.6124 19.4666 16.3683 21.2226 16.3683 23.3884C16.3683 25.5543 14.6124 27.3102 12.4466 27.3102ZM15.0716 16.3672C14.3379 16.3672 13.7433 15.7725 13.7433 15.0388C13.7433 14.3051 14.3379 13.7105 15.0716 13.7105C15.8054 13.7105 16.4 14.3051 16.4 15.0388C16.4 15.7725 15.8054 16.3672 15.0716 16.3672ZM12.7628 10.8008C10.597 10.8008 8.84104 9.04479 8.84104 6.87894C8.84104 4.71308 10.597 2.95715 12.7628 2.95715C14.9287 2.95715 16.6846 4.71308 16.6846 6.87894C16.6846 9.04479 14.9287 10.8008 12.7628 10.8008ZM22.3143 24.1474C20.1485 24.1474 18.3925 22.3916 18.3925 20.2257C18.3925 18.0598 20.1485 16.304 22.3143 16.304C24.4801 16.304 26.2361 18.0598 26.2361 20.2257C26.2361 22.3916 24.4801 24.1474 22.3143 24.1474Z" fill="currentColor"/>
<path d="M15.9937 29.5805C16.9449 29.5805 17.8962 29.5805 18.8475 29.5805C20.725 29.5805 22.6026 29.5805 24.4801 29.5805C25.8195 29.5805 27.1589 29.5805 28.4983 29.5805C28.5776 29.5805 28.657 29.5805 28.7365 29.5805C29.2153 29.5805 29.6187 29.1889 29.6219 28.7077C29.625 28.2313 29.228 27.8223 28.7491 27.8223C27.7978 27.8223 26.8466 27.8223 25.8953 27.8223C24.0177 27.8223 22.1402 27.8223 20.2626 27.8223C18.9233 27.8223 17.5839 27.8223 16.2445 27.8223C16.1651 27.8223 16.0857 27.8223 16.0063 27.8223C15.5275 27.8223 15.1241 28.2139 15.1209 28.695C15.1177 29.1714 15.5148 29.5805 15.9937 29.5805Z" fill="currentColor"/>
</svg>
